<mxfile host="app.diagrams.net" modified="2024-05-11T22:45:19.357Z" agent="Mozilla/5.0 (Windows NT 10.0; Win64; x64; rv:125.0) Gecko/20100101 Firefox/125.0" etag="9iLQZvjl3kyDv6eio6Fq" version="24.3.1" type="device">
  <diagram name="Page-1" id="s--UGoMgon5x5nxGRFWV">
    <mxGraphModel dx="767" dy="400" grid="1" gridSize="10" guides="1" tooltips="1" connect="1" arrows="1" fold="1" page="1" pageScale="1" pageWidth="850" pageHeight="1100" math="0" shadow="0">
      <root>
        <mxCell id="0" />
        <mxCell id="1" parent="0" />
        <mxCell id="qbT7M5mrVoPhaYSC0p-m-1" value="Directorio" style="swimlane;fontStyle=1;align=center;verticalAlign=top;childLayout=stackLayout;horizontal=1;startSize=26;horizontalStack=0;resizeParent=1;resizeParentMax=0;resizeLast=0;collapsible=1;marginBottom=0;whiteSpace=wrap;html=1;" parent="1" vertex="1">
          <mxGeometry x="405" y="420" width="200" height="160" as="geometry" />
        </mxCell>
        <mxCell id="qbT7M5mrVoPhaYSC0p-m-2" value="+ field: type" style="text;strokeColor=none;fillColor=none;align=left;verticalAlign=top;spacingLeft=4;spacingRight=4;overflow=hidden;rotatable=0;points=[[0,0.5],[1,0.5]];portConstraint=eastwest;whiteSpace=wrap;html=1;" parent="qbT7M5mrVoPhaYSC0p-m-1" vertex="1">
          <mxGeometry y="26" width="200" height="26" as="geometry" />
        </mxCell>
        <mxCell id="qbT7M5mrVoPhaYSC0p-m-3" value="" style="line;strokeWidth=1;fillColor=none;align=left;verticalAlign=middle;spacingTop=-1;spacingLeft=3;spacingRight=3;rotatable=0;labelPosition=right;points=[];portConstraint=eastwest;strokeColor=inherit;" parent="qbT7M5mrVoPhaYSC0p-m-1" vertex="1">
          <mxGeometry y="52" width="200" height="8" as="geometry" />
        </mxCell>
        <mxCell id="qbT7M5mrVoPhaYSC0p-m-4" value="&lt;div&gt;+ tama単oTotalOcupado():int&lt;/div&gt;&lt;div&gt;+ archivoMasGrande():Archivo&lt;/div&gt;&lt;div&gt;+ archivoMasNuevo():Archivo&lt;/div&gt;&lt;div&gt;+ buscar(nombre:String):&lt;/div&gt;&lt;div&gt;+ buscarTodos(nombre:String):??[]&lt;/div&gt;&lt;div&gt;+ listadoDeContenido():String&lt;br&gt;&lt;/div&gt;" style="text;strokeColor=none;fillColor=none;align=left;verticalAlign=top;spacingLeft=4;spacingRight=4;overflow=hidden;rotatable=0;points=[[0,0.5],[1,0.5]];portConstraint=eastwest;whiteSpace=wrap;html=1;" parent="qbT7M5mrVoPhaYSC0p-m-1" vertex="1">
          <mxGeometry y="60" width="200" height="100" as="geometry" />
        </mxCell>
        <mxCell id="qbT7M5mrVoPhaYSC0p-m-5" value="&lt;div&gt;&amp;lt;&amp;lt;abstract&amp;gt;&amp;gt;&lt;/div&gt;&lt;div&gt;FileSystem&lt;/div&gt;" style="swimlane;fontStyle=1;align=center;verticalAlign=top;childLayout=stackLayout;horizontal=1;startSize=40;horizontalStack=0;resizeParent=1;resizeParentMax=0;resizeLast=0;collapsible=1;marginBottom=0;whiteSpace=wrap;html=1;" parent="1" vertex="1">
          <mxGeometry x="265" y="130" width="280" height="208" as="geometry" />
        </mxCell>
        <mxCell id="qbT7M5mrVoPhaYSC0p-m-6" value="&lt;div&gt;# nombre:String&lt;/div&gt;&lt;div&gt;# nombreCompleto:String&lt;/div&gt;&lt;div&gt;# LocalDato fechaCreacion&lt;br&gt;&lt;/div&gt;" style="text;strokeColor=none;fillColor=none;align=left;verticalAlign=top;spacingLeft=4;spacingRight=4;overflow=hidden;rotatable=0;points=[[0,0.5],[1,0.5]];portConstraint=eastwest;whiteSpace=wrap;html=1;" parent="qbT7M5mrVoPhaYSC0p-m-5" vertex="1">
          <mxGeometry y="40" width="280" height="60" as="geometry" />
        </mxCell>
        <mxCell id="qbT7M5mrVoPhaYSC0p-m-7" value="" style="line;strokeWidth=1;fillColor=none;align=left;verticalAlign=middle;spacingTop=-1;spacingLeft=3;spacingRight=3;rotatable=0;labelPosition=right;points=[];portConstraint=eastwest;strokeColor=inherit;" parent="qbT7M5mrVoPhaYSC0p-m-5" vertex="1">
          <mxGeometry y="100" width="280" height="8" as="geometry" />
        </mxCell>
        <mxCell id="qbT7M5mrVoPhaYSC0p-m-8" value="&lt;div&gt;+ &amp;lt;&amp;lt;abstract&amp;gt;&amp;gt; tama単oTotalOcupado():int&lt;/div&gt;&lt;div&gt;+ &amp;lt;&amp;lt;abstract&amp;gt;&amp;gt; archivoMasGrande():Archivo&lt;/div&gt;&lt;div&gt;+ &amp;lt;&amp;lt;abstract&amp;gt;&amp;gt; archivoMasNuevo():Archivo&lt;/div&gt;&lt;div&gt;+ &amp;lt;&amp;lt;abstract&amp;gt;&amp;gt; buscar(nombre:String):&lt;/div&gt;&lt;div&gt;+ &amp;lt;&amp;lt;abstract&amp;gt;&amp;gt; buscarTodos(nombre:String):??[]&lt;/div&gt;&lt;div&gt;+ &amp;lt;&amp;lt;abstract&amp;gt;&amp;gt; listadoDeContenido():String&lt;br&gt;&lt;/div&gt;" style="text;strokeColor=none;fillColor=none;align=left;verticalAlign=top;spacingLeft=4;spacingRight=4;overflow=hidden;rotatable=0;points=[[0,0.5],[1,0.5]];portConstraint=eastwest;whiteSpace=wrap;html=1;" parent="qbT7M5mrVoPhaYSC0p-m-5" vertex="1">
          <mxGeometry y="108" width="280" height="100" as="geometry" />
        </mxCell>
        <mxCell id="qbT7M5mrVoPhaYSC0p-m-9" value="Archivo (Leaf)" style="swimlane;fontStyle=1;align=center;verticalAlign=top;childLayout=stackLayout;horizontal=1;startSize=26;horizontalStack=0;resizeParent=1;resizeParentMax=0;resizeLast=0;collapsible=1;marginBottom=0;whiteSpace=wrap;html=1;" parent="1" vertex="1">
          <mxGeometry x="115" y="420" width="200" height="160" as="geometry" />
        </mxCell>
        <mxCell id="qbT7M5mrVoPhaYSC0p-m-10" value="+ tama単o: int" style="text;strokeColor=none;fillColor=none;align=left;verticalAlign=top;spacingLeft=4;spacingRight=4;overflow=hidden;rotatable=0;points=[[0,0.5],[1,0.5]];portConstraint=eastwest;whiteSpace=wrap;html=1;" parent="qbT7M5mrVoPhaYSC0p-m-9" vertex="1">
          <mxGeometry y="26" width="200" height="26" as="geometry" />
        </mxCell>
        <mxCell id="qbT7M5mrVoPhaYSC0p-m-11" value="" style="line;strokeWidth=1;fillColor=none;align=left;verticalAlign=middle;spacingTop=-1;spacingLeft=3;spacingRight=3;rotatable=0;labelPosition=right;points=[];portConstraint=eastwest;strokeColor=inherit;" parent="qbT7M5mrVoPhaYSC0p-m-9" vertex="1">
          <mxGeometry y="52" width="200" height="8" as="geometry" />
        </mxCell>
        <mxCell id="qbT7M5mrVoPhaYSC0p-m-12" value="&lt;div&gt;+ tama単oTotalOcupado():int&lt;/div&gt;&lt;div&gt;+ archivoMasGrande():Archivo&lt;/div&gt;&lt;div&gt;+ archivoMasNuevo():Archivo&lt;/div&gt;&lt;div&gt;+ buscar(nombre:String):&lt;/div&gt;&lt;div&gt;+ buscarTodos(nombre:String):??[]&lt;/div&gt;&lt;div&gt;+ listadoDeContenido():String&lt;br&gt;&lt;/div&gt;" style="text;strokeColor=none;fillColor=none;align=left;verticalAlign=top;spacingLeft=4;spacingRight=4;overflow=hidden;rotatable=0;points=[[0,0.5],[1,0.5]];portConstraint=eastwest;whiteSpace=wrap;html=1;" parent="qbT7M5mrVoPhaYSC0p-m-9" vertex="1">
          <mxGeometry y="60" width="200" height="100" as="geometry" />
        </mxCell>
        <mxCell id="qbT7M5mrVoPhaYSC0p-m-15" value="" style="endArrow=block;dashed=1;endFill=0;endSize=12;html=1;rounded=0;exitX=0.5;exitY=0;exitDx=0;exitDy=0;entryX=0.222;entryY=0.989;entryDx=0;entryDy=0;entryPerimeter=0;" parent="1" source="qbT7M5mrVoPhaYSC0p-m-9" target="qbT7M5mrVoPhaYSC0p-m-8" edge="1">
          <mxGeometry width="160" relative="1" as="geometry">
            <mxPoint x="165" y="370" as="sourcePoint" />
            <mxPoint x="325" y="370" as="targetPoint" />
          </mxGeometry>
        </mxCell>
        <mxCell id="qbT7M5mrVoPhaYSC0p-m-16" value="" style="endArrow=block;dashed=1;endFill=0;endSize=12;html=1;rounded=0;exitX=0.5;exitY=0;exitDx=0;exitDy=0;" parent="1" source="qbT7M5mrVoPhaYSC0p-m-1" target="qbT7M5mrVoPhaYSC0p-m-8" edge="1">
          <mxGeometry width="160" relative="1" as="geometry">
            <mxPoint x="315" y="380" as="sourcePoint" />
            <mxPoint x="385" y="340" as="targetPoint" />
          </mxGeometry>
        </mxCell>
        <mxCell id="qbT7M5mrVoPhaYSC0p-m-17" style="edgeStyle=orthogonalEdgeStyle;rounded=0;orthogonalLoop=1;jettySize=auto;html=1;entryX=1.004;entryY=0.096;entryDx=0;entryDy=0;entryPerimeter=0;" parent="1" source="qbT7M5mrVoPhaYSC0p-m-4" target="qbT7M5mrVoPhaYSC0p-m-5" edge="1">
          <mxGeometry relative="1" as="geometry">
            <mxPoint x="625" y="200" as="targetPoint" />
            <Array as="points">
              <mxPoint x="735" y="530" />
              <mxPoint x="735" y="150" />
            </Array>
          </mxGeometry>
        </mxCell>
        <mxCell id="qbT7M5mrVoPhaYSC0p-m-18" value="elementos" style="edgeLabel;html=1;align=center;verticalAlign=middle;resizable=0;points=[];" parent="qbT7M5mrVoPhaYSC0p-m-17" vertex="1" connectable="0">
          <mxGeometry x="-0.0591" y="-2" relative="1" as="geometry">
            <mxPoint as="offset" />
          </mxGeometry>
        </mxCell>
        <mxCell id="qbT7M5mrVoPhaYSC0p-m-20" style="edgeStyle=orthogonalEdgeStyle;rounded=0;orthogonalLoop=1;jettySize=auto;html=1;" parent="1" source="qbT7M5mrVoPhaYSC0p-m-19" target="qbT7M5mrVoPhaYSC0p-m-5" edge="1">
          <mxGeometry relative="1" as="geometry" />
        </mxCell>
        <mxCell id="qbT7M5mrVoPhaYSC0p-m-19" value="&lt;div&gt;Cliente&lt;/div&gt;" style="html=1;whiteSpace=wrap;" parent="1" vertex="1">
          <mxGeometry x="350" y="30" width="110" height="50" as="geometry" />
        </mxCell>
      </root>
    </mxGraphModel>
  </diagram>
</mxfile>
